#format: frame checksums
#version: 2
#hash: MD5
#extradata 0,                              30, 226f0a640065a7bbc3a3e6dd5067de5a
#tb 0: 1/51200
#media_type 0: video
#codec_id 0: mpeg4
#dimensions 0: 352x288
#sar 0: 1/1
#tb 1: 1/44100
#media_type 1: audio
#codec_id 1: ac3
#sample_rate 1: 44100
#channel_layout 1: 4
#channel_layout_name 1: mono
#stream#, dts,        pts, duration,     size, hash
1,       -256,       -256,     1536,      416, e3bd415f62aa927e9273151fdf21ebce
0,          0,          0,     2048,     8876, b18b95893443cf5840d5962ad3456e97
1,       1280,       1280,     1536,      418, 6e79527e2af3448d7a0e4a8e29cd9722
0,       2048,       2048,     2048,     1025, 3c8f2dba6d80ebd4f656ecb772d46c9d
1,       2816,       2816,     1536,      418, cf49595ac385e497672e5a814f7bcd79
0,       4096,       4096,     2048,     1226, 03470d542c38b78c48df45f19f2958e7
1,       4352,       4352,     1536,      418, 846982243d330ab782f0120988d52ade
0,       6144,       6144,     2048,     1353, 51f123ef389e7ccb20d382ce779d81ed
1,       5888,       5888,     1536,      418, 77b2d15948434a4831e30c47b8214591
0,       8192,       8192,     2048,     1421, 19897f392cc3517485bc6acfed2c2e2f
1,       7424,       7424,     1536,      418, 4fce87d5cce10f6d0268fb398c385af5
0,      10240,      10240,     2048,     1446, 6d5a5dc31d09c144fba37c4e569f6e35
1,       8960,       8960,     1536,      418, 963f2dac9af4672809521f2174b78f10
1,      10496,      10496,     1536,      418, eb7a20193c157b02f7b5d5abf802af24
0,      12288,      12288,     2048,     1483, 299f60d66033bab84ee737c6056e8588
1,      12032,      12032,     1536,      418, 219b234a1e01d3538bfe09fda58b3289
0,      14336,      14336,     2048,     1494, 54759f501f33744e81a456b5e4d695f7
1,      13568,      13568,     1536,      418, ef7bd3e9c13f03aa6676629101a9a8a0
0,      16384,      16384,     2048,     1552, 446661f8d2ee9b82c868cffb26160054
1,      15104,      15104,     1536,      418, c5dda974df7e418d9036dff134aad2ae
0,      18432,      18432,     2048,     1521, 0db5cd946c19b1552eacf56901558e5c
1,      16640,      16640,     1536,      418, 48e7a9f574654dd95a325cfec5072254
0,      20480,      20480,     2048,     1545, 725ac20d7c171e448dce01d660021118
1,      18176,      18176,     1536,      418, 737d867e328377a3e6623f77f646ea61
0,      22528,      22528,     2048,     1556, 429e63d26b4b3b95b91547489e49293d
1,      19712,      19712,     1536,      418, 5e2a004ad90ba069cecd9fdc1652388c
0,      24576,      24576,     2048,     8659, fdf5109e322c9e5b80d9453a6ca4853d
1,      21248,      21248,     1536,      418, c694e51e609bdd00749a04294cbd60fb
1,      22784,      22784,     1536,      418, 6b787ffae0063d9910deebc8b3e98fd4
0,      26624,      26624,     2048,     1144, 74ee1db0568ccf0c866189e59c8530cc
1,      24320,      24320,     1536,      418, eb6d62198a5472a1c179d42cde60b869
0,      28672,      28672,     2048,     1404, 9ddf9ceb0f25e54813f340c52b78a21f
1,      25856,      25856,     1536,      418, 70a6c8e61e8d75f7a310bc7294ad38f6
0,      30720,      30720,     2048,     1550, 52ca630df0df5d29a3d4d0133e746d39
1,      27392,      27392,     1536,      418, 6847924a11575b3628ccdfd81a2fb1dc
0,      32768,      32768,     2048,     1549, d999030e465c63639d2c501180ef9f63
1,      28928,      28928,     1536,      418, 6f76bbe03d8b4e0080226247e0e54f96
0,      34816,      34816,     2048,     1582, 2ea6009ba8964412d0be2286296eb255
1,      30464,      30464,     1536,      418, c946a8d690aa31fde929678b594cc432
0,      36864,      36864,     2048,     1519, ba2c386a35843ce0bb25b4f5c17e2ee6
1,      32000,      32000,     1536,      418, 3add3833b86a38c229faf8e602f83dcb
0,      38912,      38912,     2048,     1541, 34e3b4b5eb4ac0a0ab1fee2df6c38007
1,      33536,      33536,     1536,      418, cb51e6a41f5c4a5f01dd94f58210112b
1,      35072,      35072,     1536,      418, 66c3570cb8c11386b0601fe4a6eb7ee0
0,      40960,      40960,     2048,     1578, f7c6d15a0de6088a1547d4be0898387f
1,      36608,      36608,     1536,      418, 8b986c15b9ab86432c43cedd1a182e8d
0,      43008,      43008,     2048,     1622, e568e8b1bf951006f7d025890b950e5d
1,      38144,      38144,     1536,      418, 0dd29cc7f63f2afac3eec5e5944165e7
0,      45056,      45056,     2048,     1611, a208ef59b6f176a78d6c9113df17cf3d
1,      39680,      39680,     1536,      418, c4c14deb03d5048f8c6101260c617fae
0,      47104,      47104,     2048,     1706, f298b1930c927839470258f50d456dc8
1,      41216,      41216,     1536,      418, 4a3480d888fa0dd49a7bbf2669b5d3ed
0,      49152,      49152,     2048,     9737, 94e0e1fa27e7e57a956e0fc27670e5c8
1,      42752,      42752,     1536,      418, aaeabe149b9185a6f09c271eb2c656dd
0,      51200,      51200,     2048,     1323, 248d92526f1e6a0d5e7592b40ac213c0
1,      44288,      44288,     1536,      418, 0995488ad1bb84ec4a3e738b568484a4
1,      45824,      45824,     1536,      418, baa39bdfd9f47f7d312312985f59fb72
0,      53248,      53248,     2048,     1621, 1ee6a5eb09be8ab281d05125c2868c56
1,      47360,      47360,     1536,      418, c25bac736a8c356d0a0f9c9299f88880
0,      55296,      55296,     2048,     1698, db8b8ca03eca285d02dbce6eaaacdfd1
1,      48896,      48896,     1536,      418, 85378fd6c8b49a1f4c5490ab1e4013ca
0,      57344,      57344,     2048,     1793, c50e4bdacb3ecef9c94be7b292929018
1,      50432,      50432,     1536,      418, 528e28031145f07336cd2a1b9b324ca6
0,      59392,      59392,     2048,     1805, 1db64693c5ca5595b2f47097ffdfc612
1,      51968,      51968,     1536,      418, cc9b907fc92fffc61f7e41cdb863d586
0,      61440,      61440,     2048,     1880, 9f96e1bc1f3b595d6cd626dced55416f
1,      53504,      53504,     1536,      418, fe2f2ca279b14d7053349111578b48c0
0,      63488,      63488,     2048,     1902, 209393253d103d83d8dddde7fe044953
1,      55040,      55040,     1536,      418, 5f2c6037aa4b89572a4ed712082ae2ab
0,      65536,      65536,     2048,     1896, 9a845e06daafc1dd83d77fe507569968
1,      56576,      56576,     1536,      418, 17a096694df972c2ef3a9abbe0a9cd6a
1,      58112,      58112,     1536,      418, c96a64bbfd1aae269e44bfdaea7c8a9c
0,      67584,      67584,     2048,     1954, 77c37124c545198b688518508299f5f8
1,      59648,      59648,     1536,      418, 5f9297244e107134c49fc4982f5a7c1f
0,      69632,      69632,     2048,     1989, 0b142544ef59e421e33a40f9e685dffa
1,      61184,      61184,     1536,      418, da740d2d75b51d6e28bcb068f6a90d41
0,      71680,      71680,     2048,     2042, f69d73e0af0b4d9ef65205d8a0ee0937
1,      62720,      62720,     1536,      418, 76e6bbbbfa0692659d0d84a30dcfff34
0,      73728,      73728,     2048,    10838, bd02df61e3f5c0aa572904220aaf04a6
1,      64256,      64256,     1536,      418, 0bd304182f1693b18c46b0faa682b159
0,      75776,      75776,     2048,     1511, 6ab5a58771e346bd8756fdd68139ad8e
1,      65792,      65792,     1536,      418, ecf7bd4ba9161338ce2cefc1fdd06098
0,      77824,      77824,     2048,     1780, 62e0bc487aa55ad381d0a1e7f8b7a477
1,      67328,      67328,     1536,      418, 4953c0e441ca0ca2e1970b8b31d6c70e
0,      79872,      79872,     2048,     1953, ad1854098648e499e347cf828202d1d5
1,      68864,      68864,     1536,      418, 4eb7f24aa46b8f0e6b47d0ca6ec0d56d
1,      70400,      70400,     1536,      418, df4d73a6acccd3be6663188f4baab996
0,      81920,      81920,     2048,     2036, da8405d19586da34274a578f4972fd7f
1,      71936,      71936,     1536,      418, 5e60f266106b86f19749b64d86b11f43
0,      83968,      83968,     2048,     1980, e046fca4a3652fad1b0b22e49a290dd8
1,      73472,      73472,     1536,      418, cedea148c5f7ddba6f0fbcbe17e6bfbb
0,      86016,      86016,     2048,     2014, 01806ec06d4cdb2b840a6f7993b648e3
1,      75008,      75008,     1536,      416, 97655498b413a59b3f0f6bdc25f69084
0,      88064,      88064,     2048,     2040, 19c5cc70489711d467ef7ef4414fdf6a
1,      76544,      76544,     1536,      418, 0bea3f23db7aafefe50710310af25a9b
0,      90112,      90112,     2048,     2071, 2bc9f2d22ac276366337341e89efd6cb
1,      78080,      78080,     1536,      418, e763b383810d9a4645901c0d93f98a32
0,      92160,      92160,     2048,     2117, 7173333f3ff643752b8afea6d5486117
1,      79616,      79616,     1536,      418, f090bb15688066a9c5129348f86245e7
0,      94208,      94208,     2048,     2169, fda9c958dc9fea54efa935624528a902
1,      81152,      81152,     1536,      418, beb8658ede31b44326de936b28a2d740
1,      82688,      82688,     1536,      418, 53987c0214550f387ce03093b83f4225
0,      96256,      96256,     2048,     2096, 9516005a46f05f1a582524be91c4d672
1,      84224,      84224,     1536,      418, d3c37c202144070892528cc0a0ff3112
0,      98304,      98304,     2048,    11219, 834f992165c0ee5e5a60fff78610b449
1,      85760,      85760,     1536,      418, cf52ea7fc69e4c5bc8f75b354dfe60af
0,     100352,     100352,     2048,     1506, 74f01869f22e72e244f31e2da2614676
1,      87296,      87296,     1536,      418, 78ab22657a1b6c8a0e5b8612ceb8081d
